<?xml version="1.0" encoding="UTF-8"?>
<!DOCTYPE svg PUBLIC "-//W3C//DTD SVG 1.1//EN" "http://www.w3.org/Graphics/SVG/1.1/DTD/svg11.dtd">
<!-- Creator: CorelDRAW X7 -->
<svg xmlns="http://www.w3.org/2000/svg" xml:space="preserve" width="30px" height="32px" version="1.1" style="shape-rendering:geometricPrecision; text-rendering:geometricPrecision; image-rendering:optimizeQuality; fill-rule:evenodd; clip-rule:evenodd"
viewBox="0 0 31 33"
 xmlns:xlink="http://www.w3.org/1999/xlink">
 <defs>
  <style type="text/css">
   <![CDATA[
    .fil2 {fill:#205087}
    .fil0 {fill:#D62020}
    .fil3 {fill:#205087;fill-rule:nonzero}
    .fil1 {fill:#D62020;fill-rule:nonzero}
   ]]>
  </style>
 </defs>
 <g id="Layer_x0020_1">
  <metadata id="CorelCorpID_0Corel-Layer"/>
  <g>
   <path class="fil0" d="M9 7c2,0 4,1 4,3 0,1 -2,3 -4,3 -1,0 -3,-2 -3,-3 0,0 0,-1 0,-1 0,0 1,0 1,0 1,0 1,0 1,-1 0,-1 0,-1 0,-1 0,0 1,0 1,0z"/>
   <path id="1" class="fil1" d="M13 10l0 0 0 0 0 0 0 -1 0 0 0 0 0 0 -1 0 0 0 0 -1 0 0 0 0 0 0 0 0 0 0 0 0 0 0 0 -1 0 0 -1 0 0 0 0 0 0 0 0 0 0 0 0 0 0 0 -1 0 0 0 0 0 0 0 0 0 0 0 -1 0 0 -1 1 0 0 0 0 1 0 0 0 0 0 0 1 0 0 0 0 0 0 0 0 0 0 0 0 0 1 0 0 0 0 0 0 1 0 0 0 0 0 0 0 0 0 0 0 0 0 0 1 1 0 0 0 0 0 0 0 0 0 0 0 1 0 0 0 0zm-4 3l0 0 0 0 1 0 0 0 0 0 0 0 0 0 0 0 1 0 0 0 0 0 0 -1 0 0 0 0 0 0 0 0 1 0 0 0 0 0 0 0 0 0 0 -1 0 0 0 0 0 0 0 0 0 0 0 0 1 -1 0 0 0 0 0 0 0 0 0 0 0 0 0 0 0 0 0 0 0 0 0 0 0 1 0 0 -1 0 0 0 0 0 0 0 0 0 0 1 0 0 0 0 0 0 0 0 0 0 -1 0 0 0 0 0 0 1 0 0 0 0 0 0 -1 0 0 0 0 0 0 0 0 0 0 0 -1 0 0 0zm-3 -3l0 0 0 0 0 0 0 0 0 0 0 0 0 0 0 1 1 0 0 0 0 0 0 0 0 0 0 0 0 1 0 0 0 0 0 0 0 0 0 0 1 0 0 0 0 0 0 0 0 1 0 0 0 0 1 0 0 0 0 0 0 0 0 0 0 0 0 0 0 0 0 0 0 0 0 0 0 0 0 0 0 0 -1 0 0 0 0 0 0 0 0 -1 0 0 0 0 -1 0 0 0 0 0 0 0 0 0 0 0 0 -1 0 0 0 0 0 0 0 0 -1 0 0 0 0 -1 0 0 0 0 0 0 0 0 0 0 0 0zm0 -1l0 0 0 0 0 0 0 0 0 0 0 0 0 0 0 0 0 0 0 0 0 0 0 0 0 0 0 0 0 1 0 0 0 0 0 0 0 0 0 0 0 0 0 0 0 0 0 0 0 0 0 0 0 0 0 0 0 0 0 0 0 0 0 0 0 0 0 0 0 0 0 0 0 0 0 0 0 0 0 0 0 0 0 0 0 0 0 0 0 0 0 0 0 0 0 0 0 0 0 0 0 0 0 0 0 0 0 0 0 -1 0 0 0 0 0 0 0 0 0 0 0 0 0 0 0 0 0 0 0 0 0 0 0 0 0 0zm0 0l0 0 0 0 0 0zm1 0l0 1 0 0 0 0 0 0 0 0 0 0 0 0 0 0 0 0 0 0 0 0 0 0 0 0 0 0 0 0 0 0 0 0 0 -1 0 0 0 0 0 0 0 0 -1 0 0 0 0 0 0 0 0 0 0 0 0 0 0 0 0 0 0 0 0 0 0 0 0 0 0 0 0 0 0 0 0 0 0 0 0 0 0 0 0 0 0 0 0 0 1 0 0 0 0 0 0 0 0 0 0 0 0 0 0 0 0 0 0 0 0 0 0 0 0 0 0 0 0 0 0 0 0 0 0 0 0 0 0 0 0 0 0 0 0 0zm1 -1l0 0 0 0 0 0 0 0 0 0 0 0 0 0 0 0 0 0 0 1 0 0 0 0 0 0 0 0 0 0 0 0 0 0 0 0 0 0 0 0 0 0 0 0 0 0 0 0 0 0 -1 0 0 0 0 0 0 0 0 0 0 1 0 0 0 0 0 0 0 -1 0 0 0 0 0 0 0 0 0 0 0 0 0 0 0 0 1 0 0 0 0 0 0 0 0 0 0 0 0 0 0 0 0 0 0 0 0 0 0 0 0 0 0 0 0 0 0 -1 0 0 0 0 0 0 0 0 0 0 0 0 0 0 0 0 0 0zm0 -1l0 0 0 0 0 0 0 0 0 0 0 0 0 0 0 0 0 0 0 0 0 0 0 0 0 0 0 0 0 0 0 0 0 0 0 0 0 0 0 0 0 0 0 0 0 0 0 1 0 0 0 0 0 0 0 0 0 0 0 0 0 0 0 0 0 0 0 0 0 0 0 0 0 0 0 0 0 0 0 0 0 0 0 0 0 0 0 0 0 0 0 0 0 -1 0 0 0 0 0 0 0 0 0 0 0 0 0 0 0 0 0 0 0 0 0 0 0 0 0 0 0 0 0 0 0 0 0 0 0 0 0 0 0 0 0 0zm0 0l0 0 0 0 0 0zm1 -1l0 1 0 0 0 0 0 0 0 0 0 0 0 0 0 0 0 0 0 0 0 0 0 0 0 0 0 0 0 0 0 0 0 0 0 0 0 0 0 0 0 0 0 0 0 0 -1 0 0 0 0 0 0 0 0 0 0 0 0 0 0 0 0 0 0 0 0 0 0 0 0 0 0 0 0 0 0 0 0 0 0 0 0 0 0 0 0 0 0 0 1 0 0 0 0 0 0 0 0 0 0 0 0 0 0 0 0 0 0 0 0 0 0 0 0 -1 0 0 0 0 0 0 0 0 0 0 0 0 0 0 0 0 0 0 0 0z"/>
  </g>
  <g>
   <path class="fil0" d="M7 7c0,0 1,0 1,1 0,1 -1,1 -1,1 -1,0 -2,0 -2,-1 0,-1 1,-1 2,-1z"/>
   <path id="1" class="fil1" d="M8 8l0 0 0 0 0 0 0 0 0 0 0 0 0 -1 0 0 0 0 0 0 0 0 0 0 0 0 0 0 0 0 0 0 0 0 0 0 0 0 0 0 0 0 -1 0 0 0 0 0 0 0 0 0 0 0 0 0 0 0 0 0 0 0 0 0 0 0 0 0 0 -1 0 0 0 0 0 0 0 0 0 0 0 1 0 0 0 0 0 0 0 0 0 0 1 0 0 0 0 0 0 0 0 0 0 0 0 0 0 0 0 0 0 0 0 0 0 0 0 0 0 0 0 0 0 0 0 1 0 0 0 0 0 0 0 0 0 0zm-1 1l0 0 0 0 0 0 0 0 0 0 0 0 0 0 0 0 0 0 0 0 0 0 0 0 0 0 0 0 1 0 0 0 0 0 0 0 0 0 0 0 0 0 0 -1 0 0 0 0 0 0 0 0 0 0 0 0 0 0 0 0 0 0 0 0 0 0 0 0 0 0 0 0 0 0 0 0 0 0 0 0 0 0 0 0 0 0 0 0 0 0 0 0 0 1 0 0 0 0 0 0 0 0 0 0 0 0 0 0 0 0 -1 0 0 0 0 0 0 0 0 0 0 0 0 0 0 0 0 0 0 0 0 0 0 0 0 0zm-2 -1l1 0 0 0 0 0 0 0 0 0 0 0 0 0 0 0 0 0 0 0 0 0 0 0 0 0 0 0 0 1 0 0 0 0 0 0 0 0 0 0 0 0 0 0 0 0 0 0 0 0 0 0 0 0 0 0 0 0 1 0 0 0 0 0 0 0 0 0 0 0 0 0 0 0 0 0 0 0 -1 0 0 0 0 0 0 0 0 0 0 0 0 0 0 0 0 0 0 0 0 0 0 0 0 0 0 0 0 0 0 0 0 -1 0 0 0 0 0 0 0 0 0 0 -1 0 0 0 0 0 0 0 0 0 0 0 0 0zm2 -2l0 1 0 0 0 0 0 0 0 0 0 0 -1 0 0 0 0 0 0 0 0 0 0 0 0 0 0 0 0 0 0 0 0 0 0 0 0 0 0 0 0 0 0 0 0 0 0 0 0 0 0 0 0 0 0 0 0 0 0 1 0 0 0 0 0 0 0 0 -1 0 0 0 0 0 0 0 0 0 0 -1 1 0 0 0 0 0 0 0 0 0 0 0 0 0 0 0 0 0 0 0 0 0 0 0 0 0 0 0 0 0 0 0 0 0 0 0 0 0 0 0 0 0 0 -1 1 0 0 0 0 0 0 0 0 0 0 0z"/>
  </g>
  <g>
   <path class="fil2" d="M25 0c1,0 3,1 3,3 0,2 -2,3 -3,3 -2,0 -3,-1 -3,-3 0,-2 1,-3 3,-3z"/>
   <path id="1" class="fil3" d="M28 3l-1 0 0 0 0 0 0 0 0 0 0 -1 0 0 0 0 0 0 0 0 0 0 0 0 0 -1 0 0 0 0 0 0 0 0 0 0 0 0 -1 0 0 0 0 0 0 0 0 -1 0 0 0 0 0 0 -1 0 0 0 0 0 0 0 0 0 0 0 0 0 0 0 0 0 0 0 0 0 0 0 0 0 0 0 1 0 0 0 0 0 0 0 0 0 0 1 0 0 0 0 1 0 0 0 0 0 0 0 0 0 0 0 0 0 0 1 0 0 0 0 0 0 0 0 0 0 0 0 1 1 0 0 0 0 0 0 0 0zm-3 3l0 0 0 0 0 0 0 0 0 0 0 0 0 0 0 0 1 0 0 0 0 0 0 0 0 0 0 -1 0 0 0 0 1 0 0 0 0 0 0 0 0 0 0 0 0 0 0 -1 0 0 0 0 0 0 0 0 0 0 0 0 0 -1 0 0 0 0 0 0 1 0 0 0 0 0 0 0 -1 1 0 0 0 0 0 0 0 0 0 0 0 0 0 1 0 0 0 0 0 0 0 0 0 0 0 0 -1 0 0 0 0 0 0 1 0 0 0 0 0 0 0 0 -1 0 0 0 0 0 0 0 0 0 0 0 0 0 0 0zm-3 -3l0 0 0 0 0 0 0 0 0 0 0 1 0 0 0 0 0 0 0 0 0 0 0 0 0 1 0 0 0 0 0 0 0 0 0 0 1 0 0 0 0 0 0 0 0 1 0 0 0 0 0 0 1 0 0 0 0 0 0 0 0 0 0 0 0 0 1 0 0 0 -1 0 0 0 0 0 0 0 0 0 0 0 0 0 -1 0 0 0 0 0 0 0 0 -1 0 0 0 0 0 0 -1 0 0 0 0 0 0 0 0 0 0 0 0 -1 0 0 0 0 0 0 0 0 0 0 0 0 0 -1 0 0 0 0 0 0 0 0zm3 -3l0 0 0 0 -1 0 0 0 0 0 0 0 0 0 0 0 0 0 -1 0 0 0 0 0 0 1 0 0 0 0 0 0 0 0 -1 0 0 0 0 0 0 0 0 0 0 0 0 1 0 0 0 0 0 0 0 0 0 0 0 0 0 1 0 0 0 0 0 0 0 0 0 0 0 0 0 0 0 -1 0 0 0 0 0 0 0 0 0 0 0 0 0 -1 0 0 0 0 0 0 0 0 0 0 1 0 0 0 0 0 0 0 0 -1 0 0 0 0 0 0 1 0 0 0 0 0 0 0 0 0 0 0 0 0 1 0 0 0z"/>
  </g>
  <g>
   <path class="fil2" d="M29 9c-14,-12 -15,18 -28,7 17,16 15,-17 28,-7z"/>
   <path id="1" class="fil3" d="M1 16l0 0 0 0 1 1 1 1 1 0 1 0 1 0 1 0 1 0 1 0 0 -1 1 0 1 -1 1 -1 0 0 1 -1 1 -1 0 -1 1 -1 1 -1 1 0 0 -1 1 -1 1 0 1 -1 0 0 1 -1 1 0 1 0 1 0 1 1 1 0 2 1 1 1 0 0 -1 -1 -2 -1 -1 0 -1 0 -1 -1 -1 0 -1 1 -1 0 0 0 -1 1 -1 0 -1 1 0 1 -1 1 -1 0 -1 1 0 1 -1 1 -1 1 0 0 -1 1 -1 1 0 0 -1 1 -1 0 -1 0 -1 1 -1 -1 -1 0 -1 0 -1 -1 -1 -1 0 0zm0 0l-1 -1 1 1 0 0zm28 -7l0 0 0 0 -1 -1 -1 0 -2 -1 0 0 -1 0 -1 0 -1 1 -1 0 0 1 -1 0 -1 1 0 1 -1 1 0 1 -1 1 -1 1 0 1 -1 1 -1 1 0 0 -1 1 -1 1 -1 0 0 0 -1 1 -1 0 -1 -1 -2 0 -1 -1 -1 0 -2 -1 -1 -2 0 0 2 1 1 2 1 0 1 1 2 0 1 1 1 0 1 -1 0 0 1 0 1 -1 1 -1 0 -1 1 0 1 -1 0 -1 1 -1 0 -1 1 -1 1 -1 0 -1 1 -1 1 0 0 -1 1 0 1 -1 1 0 1 0 1 0 1 1 1 0 1 1 0 0z"/>
  </g>
  <g>
   <path class="fil0" d="M8 18c-3,-1 -9,-3 -4,-10 -7,7 -1,11 4,10z"/>
   <path id="1" class="fil1" d="M4 8l0 0 0 0 -1 0 0 1 0 1 -1 0 0 1 0 0 0 1 0 0 0 1 0 0 0 1 0 0 0 0 1 1 0 0 0 0 0 0 0 1 1 0 0 0 0 0 1 1 0 0 0 0 1 0 0 0 0 0 1 0 0 0 0 0 0 1 1 0 0 0 -1 0 0 0 0 0 0 -1 -1 0 0 0 0 0 -1 0 0 0 0 0 -1 -1 0 0 0 0 -1 0 0 0 0 -1 0 0 -1 0 0 -1 0 0 0 0 0 -1 0 0 0 -1 0 0 0 -1 0 0 0 -1 1 0 0 -1 0 -1 1 0 0 0zm0 0l0 -1 0 1 0 0zm4 10l0 0 0 0 -1 0 0 0 -1 0 0 0 0 0 -1 0 0 0 -1 0 0 -1 0 0 -1 0 0 0 -1 0 0 -1 0 0 0 0 -1 -1 0 0 0 0 0 -1 0 0 0 -1 0 0 0 -1 0 0 0 -1 1 0 0 -1 0 0 1 -1 0 -1 1 0 0 0 -1 0 0 1 -1 1 0 0 0 1 -1 0 0 1 0 0 0 1 0 0 0 1 0 0 0 1 0 0 0 0 1 1 0 0 0 0 1 1 0 0 0 0 1 0 0 0 0 1 1 0 0 0 1 0 0 0 0 0 1 0 0 0 1 0 0 0zm0 0l0 0 0 0 0 0z"/>
  </g>
  <g>
   <path class="fil2" d="M25 8c6,6 4,10 1,17 3,-4 10,-15 -1,-17z"/>
   <path id="1" class="fil3" d="M26 25l0 0 0 0 0 0 0 -1 1 -1 0 0 0 -1 1 0 0 -1 0 -1 0 0 0 -1 0 0 1 -1 0 0 0 -1 0 0 0 -1 0 0 0 -1 0 0 0 -1 -1 0 0 -1 0 0 0 -1 0 0 -1 -1 0 0 0 -1 -1 -1 0 0 -1 -1 0 0 0 0 0 0 1 1 0 0 1 1 0 0 0 1 1 0 0 1 0 1 0 0 1 1 0 0 0 1 0 0 0 1 0 0 0 1 0 0 0 1 0 0 0 1 -1 0 0 1 0 0 0 1 0 1 -1 0 0 1 0 0 0 1 -1 1 0 0 0 0zm0 0l0 1 0 -1 0 0zm-1 -17l0 0 0 0 1 0 0 0 1 1 1 0 1 0 0 1 1 0 0 1 0 0 1 1 0 0 0 1 0 1 0 0 0 1 0 1 0 0 -1 1 0 1 0 0 0 1 -1 1 0 0 0 1 -1 1 0 0 0 1 -1 0 0 1 0 0 -1 1 0 0 0 0 0 0 1 -1 0 0 0 -1 1 0 0 -1 0 0 1 -1 0 -1 0 0 1 -1 0 -1 0 0 0 -1 1 -1 0 0 0 -1 0 -1 0 0 0 -1 0 -1 -1 0 0 -1 0 0 0 -1 -1 0 0 -1 -1 0 -1 0 -1 -1 0 0 -1 0 0 0zm0 0l-1 0 1 0 0 0z"/>
  </g>
  <polygon class="fil0" points="13,22 15,22 15,20 17,20 17,22 19,22 19,24 17,24 17,26 15,26 15,24 13,24 "/>
  <g>
   <path class="fil0" d="M28 18c-2,6 -11,10 -12,11l0 4c3,-3 10,-6 12,-15z"/>
   <path id="1" class="fil1" d="M16 29l0 0 0 0 0 0 0 0 0 0 1 -1 0 0 0 0 1 0 0 0 0 -1 1 0 0 0 1 0 0 -1 1 0 0 0 0 -1 1 0 0 0 1 -1 0 0 1 0 0 -1 1 0 0 -1 0 0 1 -1 0 0 1 -1 0 0 0 -1 0 0 1 -1 0 0 -1 1 0 1 0 0 0 0 -1 1 0 0 0 1 -1 0 0 1 -1 0 0 1 -1 0 0 0 -1 1 0 0 0 1 -1 0 0 0 -1 0 0 1 -1 0 0 0 -1 1 0 0 0 0 -1 0 0 0 0 1 -1 0 0 0 0 0 0 0 0 0zm0 0l0 0 0 0 0 0zm0 4l0 -4 0 0 0 4 0 0 0 0zm0 0l0 0 0 0 0 0zm12 -15l0 0 0 0 0 1 -1 1 0 1 0 0 0 1 -1 1 0 0 0 1 -1 0 0 1 0 0 -1 1 0 0 -1 1 0 0 -1 1 0 0 0 1 -1 0 0 0 -1 1 0 0 -1 0 0 1 -1 0 0 0 0 0 -1 1 0 0 -1 0 0 0 0 1 0 0 0 -1 0 0 1 0 0 0 1 -1 0 0 0 0 1 0 0 -1 1 0 0 0 1 -1 0 0 0 0 1 -1 0 0 1 -1 0 0 1 -1 0 0 1 -1 0 0 0 -1 1 0 0 -1 0 0 1 -1 0 -1 0 0 0 -1 0 -1 1 -1 0 0zm0 0l0 0 0 0 0 0z"/>
  </g>
 </g>
</svg>
